<?xml version="1.0" standalone="no"?>
<!DOCTYPE svg PUBLIC "-//W3C//DTD SVG 1.1//EN" "http://www.w3.org/Graphics/SVG/1.1/DTD/svg11.dtd">
<!--Generator: Xara Designer (www.xara.com), SVG filter version: 6.3.0.26-->
<svg fill="none" fill-rule="evenodd" stroke="black" stroke-width="0.501" stroke-linejoin="bevel" stroke-miterlimit="10" font-family="Times New Roman" font-size="16" style="font-variant-ligatures:none" xmlns:xlink="http://www.w3.org/1999/xlink" xmlns="http://www.w3.org/2000/svg" version="1.1" overflow="visible" width="400.806pt" height="150.067pt" viewBox="0 -150.067 400.806 150.067">
 <defs>
	</defs>
 <g id="Layer 1" transform="scale(1 -1)">
  <g id="Group" stroke="none">
   <path d="M 1.87,3.947 C 4.863,3.446 48.746,46.52 54.208,48.393 C 54.639,48.1 58.349,47.608 58.848,46.868 C 64.569,40.776 70.806,49.31 72.693,53.377 C 77.366,58.45 99.418,89.421 99.53,90.024 C 113.516,83.911 124.466,81.621 135.208,77.47 C 136.728,76.882 136.604,77.553 137.286,76.638 C 138.655,77.027 138.911,76.241 139.57,76.225 C 141.435,76.719 170.113,114.447 173.839,118.592 C 181.698,127.338 188.249,137.369 196.685,146.007 C 197.202,146.537 199.849,149.99 199.792,150.066 C 200.973,150.12 201.128,148.311 201.671,148.085 C 201.973,147.956 214.857,132.745 215.45,131.706 C 225.848,113.516 248.494,95.494 258.576,77.886 C 260.963,73.719 275.296,82.819 280.489,82.87 C 306.218,96.909 304.453,82.274 316.514,67.908 C 319.614,64.215 327.518,54.201 329.68,50.292 C 330.08,49.571 330.968,48.524 329.514,48.437 C 332.127,48.836 331.963,44.644 334.177,44.654 C 336.663,44.667 342.798,48.573 345.808,48.184 C 350.466,45.926 382.059,15.255 384.992,14.884 C 386.808,12.303 395.136,6.675 395.653,5.193 C 397.184,5.409 400.954,1.808 400.802,0.046 C 397.858,0.809 382.833,13.388 382.776,13.501 C 377.799,15.093 367.848,25.501 365.33,25.963 C 364.673,26.083 364.104,27.199 364.085,27.208 C 360.901,28.659 357.318,31.714 354.393,33.991 C 353.561,34.249 353.204,35.401 352.453,35.308 C 350.639,37.02 348.208,38.539 346.223,39.878 C 345.845,40.811 344.14,40.93 344.146,41.748 C 343.22,40.861 338.974,38.979 337.916,38.007 C 339.31,35.859 350.752,9.174 350.671,8.896 C 343.658,23.224 299.53,68.572 296.377,80.379 C 296.027,80.462 293.603,80.048 293.394,80.036 C 292.846,79.999 268.306,68.972 267.623,68.283 C 270.702,65.477 276.747,45.824 279.484,43.608 C 277.999,43.448 265.221,56.83 264.949,58.895 C 264.096,59.125 245.402,82.246 245.358,82.527 C 245.303,82.868 232.412,96.049 231.161,98.238 C 230.603,99.215 231.011,99.09 231.253,99.851 C 231.091,100.07 220.38,111.65 219.53,111.947 C 219.719,113.016 200.777,134.113 200.142,134.657 C 191.168,131.16 159.034,81.366 150.37,77.053 C 145.316,71.498 122.25,42.209 120.419,42.114 C 119.866,42.562 120.568,43.121 120.67,43.824 C 122.547,51.395 130.826,61.12 131.809,68.067 C 130.853,69.608 121.319,72.933 120.669,73.106 C 118.43,73.703 106.553,77.765 105.714,79.753 C 105.473,80.327 104.268,80.843 103.662,80.128 C 97.21,72.5 92.376,64.873 86.814,57.945 C 84.815,55.455 78.068,47.22 77.47,45.485 C 77.249,44.843 70.906,38.17 71.747,37.96 C 70.209,36.917 65.143,28.396 64.176,28.454 C 63.62,26.332 58.07,19.703 57.415,19.908 C 57.404,18.983 51.068,10.246 50.301,9.819 C 49.199,10.741 50.082,12.328 50.678,13.086 C 51.736,14.496 52.077,16.877 53.1,18.07 C 53.743,18.453 61.834,36.788 62.031,37.746 C 60.614,38.467 56.95,41.606 56.236,41.84 C 46.628,35.802 5.907,2.377 0,0.848 C 0.175,3.269 1.394,2.301 1.87,3.947 Z" fill="#9d9d9d" marker-start="none" marker-end="none"/>
   <path d="M 33.521,0.673 C 33.299,2.875 33.944,7.962 34.892,9.762 C 34.406,12.338 36.104,12.054 35.516,14.331 C 33.102,15.047 31.735,15.321 29.297,16.377 C 29.314,17.346 49.503,32.876 52.027,34.581 C 53.393,34.472 53.096,33.451 53.586,32.608 C 53.096,32.11 53.964,31.601 54.208,30.947 C 54.241,29.196 54.604,28.751 53.543,28.063 C 53.361,27.754 33.933,0.725 33.647,0 C 33.592,0.173 33.55,0.401 33.521,0.673 Z" fill="#707070" marker-start="none" marker-end="none"/>
   <path d="M 365.709,0.785 C 365.171,1.101 347.273,26.175 346.015,28.454 C 345.031,29.866 346.63,33.528 347.054,35.101 C 349.296,31.359 369.967,20.127 370.232,16.054 C 368.225,15.278 365.459,14.959 364.15,14.342 C 364.415,13.308 365.037,10.434 364.981,9.082 C 364.276,8.538 365.456,7.698 365.746,6.854 C 365.984,4.841 367.087,2.288 365.709,0.785 Z" fill="#8c8c8c" marker-start="none" marker-end="none"/>
   <path d="M 176.123,12.67 C 174.297,13.536 163.285,22.855 163.406,24.394 C 162.48,24.06 153.652,18.222 153.485,18.07 C 153.371,18.206 149.514,27.206 149.539,27.417 C 147.647,27.966 141.583,22.25 138.309,21.892 C 137.242,20.286 125.784,13.089 123.303,11.969 C 121.199,12.987 122.985,13.745 123.16,14.123 C 126.921,22.137 133.991,30.171 137.067,37.88 C 134.501,38.179 116.552,22.788 112.778,21.809 L 113.103,23.673 C 123.867,35.507 171.319,85.863 175.293,94.501 C 176.878,95.772 178.147,98.448 179.774,99.367 C 179.906,99.41 183.149,103.154 183.186,103.224 C 185.025,105.101 186.862,107.337 188.47,109.362 C 189.658,110.516 190.562,112.067 192.115,110.702 C 191.516,105.609 167.013,77.942 166.331,72.783 C 170.273,75.49 175.777,78.916 179.928,81.112 C 180.933,79.811 176.844,73.352 176.123,72.901 C 174.277,70.654 173.3,67.201 171.346,65.424 C 170.671,64.569 165.148,55.119 164.983,54.165 C 166.75,54.471 177.986,60.803 178.408,62.516 C 179.714,60.853 185.122,54.731 185.574,53.33 C 189.179,55.649 196.753,73.772 200.376,74.898 C 202.263,73.993 211.116,56.22 213.959,53.423 C 215.276,53.738 220.149,61.113 221.193,62.516 C 222.258,61.275 234.877,54.771 235.109,53.762 C 234.93,54.953 220.634,79.181 218.7,82.039 C 226.166,77.629 228.49,75.414 233.414,72.578 C 233.405,76.993 209.155,103.73 207.833,110.081 C 207.837,111.226 209.185,111.23 209.977,111.117 C 210.228,109.933 264.347,49.068 265.223,48.808 C 264.847,46.934 268.891,45.271 269.586,43.409 C 271.39,39.926 289.12,22.865 288.678,20.809 C 287.184,21.791 281.708,24.991 281.424,25.963 C 279.598,25.569 277.397,29.516 275.609,29.493 C 272.503,31.108 265.202,37.744 262.939,38.454 C 262.932,37.908 276.346,13.881 277.787,12.024 C 276.42,11.677 258.272,22.74 257.452,24.093 C 256.656,24.247 251.639,27.065 250.685,27.623 C 250.291,26.88 246.067,17.605 246.067,17.559 C 245.447,18.826 236.844,23.356 236.928,24.394 C 236.358,24.189 221.624,10.64 221.608,10.593 C 215.986,11.686 206.961,21.074 202.499,22.224 C 202.019,22.349 201.328,22.378 201.252,22.846 C 201.118,23.683 199.328,23.643 198.762,23.054 C 197.526,21.768 186.686,14.844 186.078,15.66 C 185.281,13.549 181.058,12.154 179.253,10.882 L 176.123,12.67 Z" fill="#969696" marker-start="none" marker-end="none"/>
   <path d="M 71.505,24.871 C 73.053,28.91 103.184,71.154 105.716,74.562 C 130.78,70.535 119.243,60.098 112.778,43.409 L 111.117,43.73 C 110.301,44.41 105.459,48.402 105.456,48.416 C 103.726,46.499 101.756,37.832 99.546,36.35 C 98.644,36.228 98.724,37.654 98.24,38.424 C 98.627,40.37 97.636,42.765 97.408,44.239 C 97.519,46.782 97.288,47.306 96.475,49.379 C 94.171,46.812 90.824,44.326 88.893,41.748 C 86.008,39.078 71.829,25.445 71.445,24.664 C 71.452,24.713 71.472,24.782 71.505,24.871 Z" fill="#838383" marker-start="none" marker-end="none"/>
   <path d="M 303.069,49.732 C 302.621,48.962 303.691,47.555 302.273,47.677 C 302.681,45.771 301.804,38.424 301.057,37.014 C 299.825,37.822 299.527,38 298.87,38.424 C 298.972,39.493 297.718,40.248 298.076,40.744 C 298.949,41.474 294.269,44.536 296.449,45.144 C 296.043,46.001 294.177,46.829 294.666,48.902 C 293.493,46.939 288.461,44.23 287.862,43.098 C 286.556,44.052 278.565,64.5 279.095,65.203 C 276.618,66.45 278.892,67.164 277.27,67.708 C 279.277,68.231 279.722,69.537 281.911,69.087 C 283.666,70.671 292.564,74.785 294.3,74.147 C 294.705,73.997 306.571,58.008 307.799,55.453 C 309.568,51.766 317.243,41.343 320.054,38.007 C 320.724,37.212 320.06,37.705 319.961,36.808 C 320.726,36.744 321.593,36.449 321.127,35.583 C 322.896,34.191 328.484,26.15 328.401,25.061 C 319.395,32.489 311.043,41.128 303.069,49.732 Z" fill="#a1a1a1" marker-start="none" marker-end="none"/>
   <path d="M 308.425,45.069 C 309.368,44.919 309.49,43.396 310.727,43.668 L 313.347,41.417 L 316.077,40.689 L 313.823,41.748 C 312.369,40.12 315.498,38.44 316.42,37.801 C 317.431,37.564 317.727,37.497 317.978,36.776 C 314.091,37.944 311.317,42.336 308.425,45.069 Z" fill="#4e4e4e" marker-start="none" marker-end="none"/>
  </g>
 </g>
</svg>
